<?xml version="1.0" encoding="UTF-8" standalone="no"?>
<svg
   xmlns:dc="http://purl.org/dc/elements/1.1/"
   xmlns:cc="http://creativecommons.org/ns#"
   xmlns:rdf="http://www.w3.org/1999/02/22-rdf-syntax-ns#"
   xmlns:svg="http://www.w3.org/2000/svg"
   xmlns="http://www.w3.org/2000/svg"
   xmlns:sodipodi="http://sodipodi.sourceforge.net/DTD/sodipodi-0.dtd"
   xmlns:inkscape="http://www.inkscape.org/namespaces/inkscape"
   inkscape:version="1.0 (4035a4fb49, 2020-05-01)"
   sodipodi:docname="chat.svg"
   xml:space="preserve"
   style="enable-background:new 0 0 297 297;"
   viewBox="0 0 297 297"
   y="0px"
   x="0px"
   id="Capa_1"
   version="1.1"><metadata
   id="metadata1067"><rdf:RDF><cc:Work
       rdf:about=""><dc:format>image/svg+xml</dc:format><dc:type
         rdf:resource="http://purl.org/dc/dcmitype/StillImage" /></cc:Work></rdf:RDF></metadata><defs
   id="defs1065" /><sodipodi:namedview
   inkscape:current-layer="g1030"
   inkscape:window-maximized="0"
   inkscape:window-y="27"
   inkscape:window-x="0"
   inkscape:cy="148.5"
   inkscape:cx="148.5"
   inkscape:zoom="2.9023569"
   showgrid="false"
   id="namedview1063"
   inkscape:window-height="857"
   inkscape:window-width="1563"
   inkscape:pageshadow="2"
   inkscape:pageopacity="0"
   guidetolerance="10"
   gridtolerance="10"
   objecttolerance="10"
   borderopacity="1"
   bordercolor="#666666"
   pagecolor="#ffffff" />
<g
   id="g1030">
	<path
   style="fill:#ffb380"
   id="path1026"
   d="M206.093,181.516c17.379,0,31.515-14.138,31.515-31.515V54.593c0-17.378-14.136-31.518-31.515-31.518H31.51   C14.135,23.075,0,37.215,0,54.593v95.408c0,17.377,14.135,31.515,31.51,31.515h22.933v32.988c0,4.012,2.416,7.627,6.121,9.162   c1.228,0.507,2.516,0.753,3.792,0.753c2.58,0,5.117-1.007,7.014-2.904l39.991-39.999H206.093z" />
	<path
   style="fill:#ffb380"
   id="path1028"
   d="M269.415,105.583h-15.944v44.418c0,26.125-21.253,47.378-47.378,47.378h-88.161l-18.537,18.542   c2.234,12.987,13.567,22.902,27.181,22.902h76.762l32.191,32.196c1.896,1.897,4.434,2.905,7.014,2.905   c1.276,0,2.564-0.249,3.792-0.756c3.705-1.535,6.12-5.149,6.12-9.16v-25.186h16.961c15.211,0,27.585-12.378,27.585-27.591v-78.061   C297,117.959,284.626,105.583,269.415,105.583z" />
</g>
<g
   id="g1032">
</g>
<g
   id="g1034">
</g>
<g
   id="g1036">
</g>
<g
   id="g1038">
</g>
<g
   id="g1040">
</g>
<g
   id="g1042">
</g>
<g
   id="g1044">
</g>
<g
   id="g1046">
</g>
<g
   id="g1048">
</g>
<g
   id="g1050">
</g>
<g
   id="g1052">
</g>
<g
   id="g1054">
</g>
<g
   id="g1056">
</g>
<g
   id="g1058">
</g>
<g
   id="g1060">
</g>
</svg>
