<?xml version="1.0" encoding="UTF-8" standalone="no"?>
<svg
   xmlns:dc="http://purl.org/dc/elements/1.1/"
   xmlns:cc="http://creativecommons.org/ns#"
   xmlns:rdf="http://www.w3.org/1999/02/22-rdf-syntax-ns#"
   xmlns:svg="http://www.w3.org/2000/svg"
   xmlns="http://www.w3.org/2000/svg"
   xmlns:sodipodi="http://sodipodi.sourceforge.net/DTD/sodipodi-0.dtd"
   xmlns:inkscape="http://www.inkscape.org/namespaces/inkscape"
   inkscape:version="1.0 (4035a4fb49, 2020-05-01)"
   sodipodi:docname="foot.svg"
   xml:space="preserve"
   style="enable-background:new 0 0 515.458 515.458;"
   viewBox="0 0 515.458 515.458"
   height="515.458px"
   width="515.458px"
   y="0px"
   x="0px"
   id="Capa_1"
   version="1.1"><metadata
   id="metadata131"><rdf:RDF><cc:Work
       rdf:about=""><dc:format>image/svg+xml</dc:format><dc:type
         rdf:resource="http://purl.org/dc/dcmitype/StillImage" /></cc:Work></rdf:RDF></metadata><defs
   id="defs129" /><sodipodi:namedview
   inkscape:current-layer="g94"
   inkscape:window-maximized="0"
   inkscape:window-y="27"
   inkscape:window-x="0"
   inkscape:cy="107.77758"
   inkscape:cx="257.729"
   inkscape:zoom="1.6005183"
   showgrid="false"
   id="namedview127"
   inkscape:window-height="819"
   inkscape:window-width="1402"
   inkscape:pageshadow="2"
   inkscape:pageopacity="0"
   guidetolerance="10"
   gridtolerance="10"
   objecttolerance="10"
   borderopacity="1"
   bordercolor="#666666"
   pagecolor="#ffffff" />
<g
   id="g94">
	<path
   style="fill:#ff6600"
   id="path92"
   d="M298.794,386.711c27.805,9.522,52.357,15.587,87.633,26.427C372.875,584.374,210.952,516.371,298.794,386.711z    M443.366,229.409c-1.826-51.415-10.882-118.86-83.017-108.292c-33.815,8.825-58.8,45.962-70.551,110.035   c-6.454,35.229-2.701,84.678,4.912,114.32c6.951,20.889,4.587,19.605,12.058,23.572c28.916,6.514,57.542,13.725,86.693,21.078   C423.075,369.209,447.397,258.182,443.366,229.409z M220.752,225.463c7.607-29.646,11.36-79.095,4.909-114.32   C213.919,47.067,188.931,9.924,155.11,1.105C82.975-9.463,73.919,57.981,72.093,109.399   c-4.031,28.768,20.294,139.802,49.911,160.711c29.149-7.353,57.771-14.558,86.696-21.078   C216.162,245.069,213.798,246.352,220.752,225.463z M129.029,293.132c13.547,171.234,175.47,103.231,87.63-26.427   C188.854,276.228,164.304,282.292,129.029,293.132z" />
</g>
<g
   id="g96">
</g>
<g
   id="g98">
</g>
<g
   id="g100">
</g>
<g
   id="g102">
</g>
<g
   id="g104">
</g>
<g
   id="g106">
</g>
<g
   id="g108">
</g>
<g
   id="g110">
</g>
<g
   id="g112">
</g>
<g
   id="g114">
</g>
<g
   id="g116">
</g>
<g
   id="g118">
</g>
<g
   id="g120">
</g>
<g
   id="g122">
</g>
<g
   id="g124">
</g>
</svg>
