<?xml version="1.0" encoding="UTF-8" standalone="no"?>
<svg
   xmlns:dc="http://purl.org/dc/elements/1.1/"
   xmlns:cc="http://creativecommons.org/ns#"
   xmlns:rdf="http://www.w3.org/1999/02/22-rdf-syntax-ns#"
   xmlns:svg="http://www.w3.org/2000/svg"
   xmlns="http://www.w3.org/2000/svg"
   xmlns:sodipodi="http://sodipodi.sourceforge.net/DTD/sodipodi-0.dtd"
   xmlns:inkscape="http://www.inkscape.org/namespaces/inkscape"
   inkscape:version="1.0 (4035a4fb49, 2020-05-01)"
   sodipodi:docname="thumb-down.svg"
   id="svg957"
   viewBox="0 0 24 24"
   height="24"
   width="24"
   version="1.1">
  <metadata
     id="metadata963">
    <rdf:RDF>
      <cc:Work
         rdf:about="">
        <dc:format>image/svg+xml</dc:format>
        <dc:type
           rdf:resource="http://purl.org/dc/dcmitype/StillImage" />
      </cc:Work>
    </rdf:RDF>
  </metadata>
  <defs
     id="defs961" />
  <sodipodi:namedview
     inkscape:current-layer="svg957"
     inkscape:window-maximized="0"
     inkscape:window-y="154"
     inkscape:window-x="50"
     inkscape:cy="12"
     inkscape:cx="12"
     inkscape:zoom="35.916667"
     showgrid="false"
     id="namedview959"
     inkscape:window-height="828"
     inkscape:window-width="1418"
     inkscape:pageshadow="2"
     inkscape:pageopacity="0"
     guidetolerance="10"
     gridtolerance="10"
     objecttolerance="10"
     borderopacity="1"
     bordercolor="#666666"
     pagecolor="#ffffff" />
  <path
     style="fill:#ff5555"
     id="path955"
     d="M19,15H23V3H19M15,3H6C5.17,3 4.46,3.5 4.16,4.22L1.14,11.27C1.05,11.5 1,11.74 1,12V14A2,2 0 0,0 3,16H9.31L8.36,20.57C8.34,20.67 8.33,20.77 8.33,20.88C8.33,21.3 8.5,21.67 8.77,21.94L9.83,23L16.41,16.41C16.78,16.05 17,15.55 17,15V5C17,3.89 16.1,3 15,3Z" />
</svg>
